<svg xmlns="http://www.w3.org/2000/svg" width="261" height="227" viewBox="0 0 261 227" role="img" aria-labelledby="title">
  <title>Synapse-Sys logo</title>
  <path fill="#0EF928" d="M114.736 0C115.814 4.30933 116.353 9.69616 116.353 16.1602C116.353 22.3548 115.814 27.7417 114.736 32.3203H130.896C130.916 32.3995 130.934 32.4796 130.953 32.5596H146.232C145.155 28.2504 144.616 22.864 144.616 16.4004C144.616 10.2058 145.155 4.81885 146.232 0.240234H243.192C244.27 4.81886 244.809 10.2058 244.809 16.4004C244.809 22.864 244.27 28.2504 243.192 32.5596H259.353C260.43 37.1382 260.969 42.5252 260.969 48.7197C260.969 55.1837 260.43 60.5706 259.353 64.8799C260.43 69.4585 260.969 74.8454 260.969 81.04C260.969 87.504 260.43 92.8909 259.353 97.2002H243.192C244.27 101.779 244.809 107.166 244.809 113.36C244.809 119.824 244.27 125.21 243.192 129.52H162.393C163.47 134.098 164.009 139.485 164.009 145.68C164.009 152.144 163.47 157.531 162.393 161.84C163.47 166.419 164.009 171.805 164.009 178C164.009 184.464 163.47 189.851 162.393 194.16H227.032C225.955 189.851 225.417 184.464 225.417 178C225.417 171.805 225.955 166.419 227.032 161.84H259.353C260.43 166.419 260.969 171.805 260.969 178C260.969 184.464 260.43 189.851 259.353 194.16H243.192C244.27 198.739 244.809 204.126 244.809 210.32C244.809 216.784 244.27 222.171 243.192 226.48H146.232C145.155 222.171 144.616 216.784 144.616 210.32C144.616 204.126 145.155 198.739 146.232 194.16H130.072C130.052 194.081 130.034 194 130.015 193.92H114.736C115.814 198.229 116.353 203.616 116.353 210.08C116.353 216.275 115.814 221.662 114.736 226.24H17.7764C16.699 221.662 16.1602 216.275 16.1602 210.08C16.1602 203.616 16.699 198.229 17.7764 193.92H1.61621C0.538896 189.341 0 183.954 0 177.76C1.18678e-05 171.296 0.538889 165.909 1.61621 161.6H33.9365C35.0138 165.909 35.5527 171.296 35.5527 177.76C35.5527 183.954 35.0138 189.341 33.9365 193.92H98.5762C97.4989 189.341 96.9609 183.954 96.9609 177.76C96.9609 171.296 97.4989 165.909 98.5762 161.6C97.4989 157.021 96.961 151.635 96.9609 145.44C96.9609 138.977 97.4989 133.59 98.5762 129.28H17.7764C16.699 124.702 16.1602 119.315 16.1602 113.12C16.1602 106.656 16.699 101.269 17.7764 96.96H1.61621C0.538891 92.3813 0 86.9944 0 80.7998C1.05963e-05 74.3359 0.538888 68.9489 1.61621 64.6396C0.538966 60.0612 2.78634e-05 54.6748 0 48.4805C0 42.0167 0.53894 36.6296 1.61621 32.3203H17.7764C16.699 27.7417 16.1602 22.3548 16.1602 16.1602C16.1602 9.69617 16.699 4.30932 17.7764 0H114.736ZM33.9365 32.3203C35.0138 36.6296 35.5527 42.0166 35.5527 48.4805C35.5527 54.6748 35.0138 60.0612 33.9365 64.6396C35.0138 68.9489 35.5527 74.3359 35.5527 80.7998C35.5527 86.9945 35.0139 92.3813 33.9365 96.96H114.736C115.814 101.269 116.353 106.656 116.353 113.12C116.353 119.315 115.814 124.702 114.736 129.28H130.896C130.916 129.359 130.934 129.44 130.953 129.52H146.232C145.155 125.21 144.616 119.824 144.616 113.36C144.616 107.166 145.155 101.779 146.232 97.2002H227.032C225.955 92.8909 225.417 87.504 225.417 81.04C225.417 74.8454 225.955 69.4585 227.032 64.8799C225.955 60.5706 225.417 55.1836 225.417 48.7197C225.417 42.5252 225.955 37.1382 227.032 32.5596H162.393C163.47 37.1382 164.009 42.5252 164.009 48.7197C164.009 55.1837 163.47 60.5706 162.393 64.8799H130.072C130.052 64.8003 130.034 64.72 130.015 64.6396H98.5762C97.4989 60.0612 96.961 54.6748 96.9609 48.4805C96.9609 42.0167 97.4989 36.6296 98.5762 32.3203H33.9365Z" />
</svg>
