<svg xmlns="http://www.w3.org/2000/svg" viewBox="0 0 128 128" role="img" aria-label="AT">
  <rect width="128" height="128" fill="#080808"/>
  <rect x="10" y="10" width="108" height="108" fill="#fbfbf8"/>
  <path d="M29 95 50 33h14l21 62H72l-4-14H46l-4 14H29Zm20-25h16L57 45h-.4L49 70Z" fill="#080808"/>
  <path d="M74 44V33h33v11H96v51H84V44H74Z" fill="#080808"/>
  <path d="M18 110h92M18 18h92" stroke="#080808" stroke-width="4" stroke-linecap="square"/>
  <g fill="#080808">
    <rect x="22" y="24" width="4" height="4"/>
    <rect x="32" y="24" width="4" height="4"/>
    <rect x="102" y="100" width="4" height="4"/>
    <rect x="92" y="100" width="4" height="4"/>
  </g>
</svg>
