<svg xmlns="http://www.w3.org/2000/svg" viewBox="0 0 320 320" role="img" aria-labelledby="title desc">
  <title id="title">PointLearn fox</title>
  <desc id="desc">A simple flat fox helper character.</desc>
  <path fill="#F4845F" d="M62 144c0-62 42-106 98-106s98 44 98 106v52c0 47-41 84-98 84s-98-37-98-84z"/>
  <path fill="#D85944" d="M62 144 32 70c-3-8 5-16 13-12l70 36zm196 0 30-74c3-8-5-16-13-12l-70 36z"/>
  <path fill="#FFF" d="M82 184c18 44 45 66 78 66s60-22 78-66c-25 8-50 12-78 12s-53-4-78-12z"/>
  <path fill="#3D3B38" d="M143 172c0-8 7-14 17-14s17 6 17 14c0 9-8 18-17 18s-17-9-17-18z"/>
  <path fill="#3D3B38" d="M112 138c0-10 8-18 18-18s18 8 18 18-8 18-18 18-18-8-18-18zm60 0c0-10 8-18 18-18s18 8 18 18-8 18-18 18-18-8-18-18z"/>
  <path fill="#FFF" d="M122 132a7 7 0 1 0 0-14 7 7 0 0 0 0 14zm60 0a7 7 0 1 0 0-14 7 7 0 0 0 0 14z"/>
  <path fill="#3D3B38" d="M129 208c16 11 46 11 62 0 4-3 8 3 4 7-19 17-51 17-70 0-4-4 0-10 4-7z"/>
  <path fill="#F4845F" d="M78 254c-23 6-39 18-50 37-4 7 1 15 9 15h86c10 0 18-8 18-18v-29c-21 1-42-1-63-5zm164 0c23 6 39 18 50 37 4 7-1 15-9 15h-86c-10 0-18-8-18-18v-29c21 1 42-1 63-5z"/>
  <path fill="#FFFFFF" d="M53 87 86 121 47 103zm214 0-33 34 39-18z"/>
  <path fill="#3D3B38" d="M67 305h187c-11-23-43-39-94-39s-83 16-93 39z"/>
</svg>
