<svg width="823" height="731" viewBox="0 0 823 731" fill="none" xmlns="http://www.w3.org/2000/svg">
<mask id="mask0_1_69" style="mask-type:luminance" maskUnits="userSpaceOnUse" x="9" y="10" width="665" height="713">
<path d="M341.431 722.55C524.938 722.55 673.701 563.163 673.701 366.55C673.701 169.937 524.938 10.5501 341.431 10.5501C157.923 10.5501 9.16064 169.937 9.16064 366.55C9.16064 563.163 157.923 722.55 341.431 722.55Z" fill="white"/>
</mask>
<g mask="url(#mask0_1_69)">
<path d="M362.49 -178.42C493.657 -178.42 604.574 -119.136 641.056 -37.6172C710.492 -83.7749 788.411 -91.1655 835.511 -49.7295C896.98 4.35061 882.69 121.06 803.601 210.96C762.561 257.61 704.691 223.21 652.881 232.53C639.111 235.01 611.381 297.53 611.381 297.53C581.461 297.64 570.2 294.361 549.11 275.811C525.768 255.274 513.353 225.702 511.26 191.997C467.717 209.72 416.842 219.9 362.49 219.9C201.627 219.9 71.2208 130.733 71.2207 20.7402C71.2207 -89.2527 201.626 -178.42 362.49 -178.42Z" fill="#231F20"/>
</g>
<mask id="mask1_1_69" style="mask-type:luminance" maskUnits="userSpaceOnUse" x="275" y="269" width="265" height="174">
<path d="M427.924 436.268C499.75 417.986 548.87 367.384 537.635 323.244C526.4 279.104 459.066 258.142 387.24 276.424C315.413 294.706 266.294 345.308 277.528 389.448C288.763 433.587 356.097 454.549 427.924 436.268Z" fill="white"/>
</mask>
<g mask="url(#mask1_1_69)">
<path d="M522.031 430.59C589.89 430.59 644.901 375.579 644.901 307.72C644.901 239.861 589.89 184.85 522.031 184.85C454.171 184.85 399.161 239.861 399.161 307.72C399.161 375.579 454.171 430.59 522.031 430.59Z" fill="#231F20"/>
</g>
<path d="M427.924 436.258C499.75 417.976 548.87 367.374 537.635 323.234C526.4 279.094 459.066 258.132 387.24 276.414C315.413 294.696 266.294 345.298 277.528 389.438C288.763 433.577 356.097 454.539 427.924 436.258Z" stroke="#231F20" stroke-width="18.38" stroke-linecap="round" stroke-linejoin="round"/>
<path d="M341.46 0C483.398 0 604.7 92.5138 656.255 223.557C667.45 217.765 679.592 213.835 692.209 211.995C715.389 208.615 739.048 212.454 759.971 222.989C780.893 233.525 798.064 250.247 809.151 270.882C820.238 291.517 824.704 315.066 821.94 338.328C819.177 361.59 809.318 383.437 793.705 400.9C778.092 418.364 757.48 430.597 734.672 435.938C715.497 440.427 695.551 439.862 676.763 434.389C646.598 602.548 508.334 730.381 341.46 730.381C152.288 730.38 0.000177293 566.268 0 365.19C0 164.113 152.288 0.000406037 341.46 0ZM341.46 18.3809C163.613 18.3813 18.3809 173.049 18.3809 365.19C18.3809 377.588 18.9869 389.83 20.166 401.885C64.8731 409.555 103.593 401.367 124.421 382.826C128.212 379.452 134.021 379.789 137.396 383.58C140.77 387.371 140.432 393.18 136.642 396.555C111.047 419.338 68.2308 427.543 22.5156 420.862C47.3609 586.35 181.162 712 341.46 712C501.741 712 635.505 586.393 660.372 420.825C661.126 415.806 665.806 412.349 670.825 413.103C670.854 413.107 670.882 413.113 670.91 413.117C671.632 413.218 672.353 413.406 673.06 413.689C691.299 421.002 711.348 422.522 730.481 418.042C749.615 413.562 766.905 403.3 780.003 388.65C793.1 374.001 801.37 355.674 803.688 336.16C806.007 316.647 802.262 296.891 792.961 279.581C783.66 262.271 769.255 248.243 751.704 239.405C734.153 230.567 714.305 227.347 694.86 230.183C675.415 233.018 657.314 241.771 643.018 255.253C628.721 268.735 618.921 286.292 614.95 305.537C613.924 310.507 609.064 313.706 604.094 312.681C599.123 311.655 595.925 306.794 596.95 301.823C601.683 278.881 613.365 257.952 630.408 241.881C633.585 238.885 636.92 236.085 640.394 233.49C592.019 106.961 476.139 18.3809 341.46 18.3809ZM242.088 438.133C243.959 433.415 249.301 431.107 254.019 432.978C258.736 434.849 261.045 440.19 259.174 444.908C256.28 452.204 251.977 458.859 246.511 464.491C241.045 470.124 234.523 474.624 227.317 477.735C220.112 480.847 212.362 482.508 204.515 482.624C196.667 482.74 188.873 481.308 181.579 478.411C176.862 476.538 174.557 471.196 176.43 466.479C178.303 461.762 183.645 459.456 188.362 461.329C193.413 463.335 198.81 464.326 204.243 464.246C209.677 464.166 215.042 463.015 220.031 460.861C225.02 458.707 229.537 455.591 233.321 451.691C237.106 447.792 240.084 443.184 242.088 438.133ZM384.973 267.507C422.26 258.016 458.804 258.586 487.891 267.641C516.808 276.643 539.84 294.645 546.54 320.967C553.24 347.289 541.617 374.112 520.521 395.844C499.303 417.702 467.478 435.672 430.19 445.163C392.903 454.654 356.359 454.085 327.272 445.03C298.355 436.028 275.321 418.026 268.621 391.704C261.922 365.382 273.547 338.559 294.642 316.827C315.86 294.969 347.685 276.997 384.973 267.507ZM482.427 285.189C457.081 277.299 424.044 276.53 389.506 285.32C354.968 294.111 326.319 310.582 307.83 329.629C289.218 348.803 281.899 369.353 286.434 387.17C290.969 404.987 307.221 419.537 332.735 427.48C358.081 435.371 391.118 436.142 425.656 427.352C460.195 418.561 488.844 402.089 507.333 383.041C525.945 363.867 533.264 343.318 528.729 325.5C524.193 307.683 507.941 293.132 482.427 285.189ZM79.7852 315.392C80.7123 310.402 85.5091 307.108 90.499 308.035L132.209 315.785C137.199 316.712 140.493 321.509 139.565 326.499C138.638 331.489 133.842 334.783 128.852 333.855L87.1416 326.105C82.1518 325.178 78.8582 320.381 79.7852 315.392ZM694.842 282.893C702.284 280.387 710.147 279.373 717.981 279.908C725.815 280.443 733.468 282.517 740.5 286.011C745.045 288.269 746.899 293.784 744.641 298.329C742.382 302.874 736.867 304.729 732.321 302.471C727.452 300.051 722.153 298.616 716.729 298.245C711.304 297.875 705.86 298.577 700.707 300.312C695.554 302.046 690.792 304.781 686.696 308.356C682.6 311.932 679.25 316.281 676.835 321.152C674.581 325.699 669.067 327.558 664.52 325.305C659.972 323.051 658.113 317.537 660.366 312.989C663.853 305.954 668.694 299.674 674.609 294.51C680.525 289.346 687.4 285.398 694.842 282.893Z" fill="#231F20"/>
</svg>
